<?xml version="1.0" encoding="utf-8"?>
<!-- Generator: Adobe Illustrator 16.0.0, SVG Export Plug-In . SVG Version: 6.00 Build 0)  -->
<!DOCTYPE svg PUBLIC "-//W3C//DTD SVG 1.1//EN" "http://www.w3.org/Graphics/SVG/1.1/DTD/svg11.dtd">
<svg version="1.1" id="Layer_1" xmlns="http://www.w3.org/2000/svg" xmlns:xlink="http://www.w3.org/1999/xlink" x="0px" y="0px"
	 width="300px" height="300px" viewBox="0 0 300 300" enable-background="new 0 0 300 300" xml:space="preserve">
<g>
	<path fill="#1376BC" stroke="#000000" stroke-width="3.2064" stroke-miterlimit="10" d="M282.933,196.297
		c0,15.161-12.331,27.494-27.493,27.494h-14.101c-3.253,0-5.901,2.616-5.901,5.901v25.163l-24.491-28.943
		c-1.131-1.342-2.755-2.085-4.49-2.085H44.562c-15.16,0-27.495-12.336-27.495-27.495v-17.884v-11.767V72.641
		c0-15.162,12.335-27.497,27.495-27.497h181.439h11.77h17.668c15.162,0,27.493,12.335,27.493,27.497V196.297L282.933,196.297z"/>
</g>
<text transform="matrix(1 0 0 1 105.2002 95.3877)"><tspan x="0" y="0" fill="#8DC541" font-family="'CenturyGothic'" font-size="46.5148">LIVE</tspan><tspan x="-17.103" y="55.817" fill="#FFFFFF" font-family="'CenturyGothic'" font-size="46.5148">CHAT</tspan><tspan x="-53.771" y="111.636" fill="#8DC541" font-family="'CenturyGothic'" font-size="46.5148">SUPPORT</tspan></text>
</svg>
