<?xml version="1.0" encoding="utf-8"?>
<!-- Generator: Adobe Illustrator 16.0.0, SVG Export Plug-In . SVG Version: 6.00 Build 0)  -->
<!DOCTYPE svg PUBLIC "-//W3C//DTD SVG 1.1//EN" "http://www.w3.org/Graphics/SVG/1.1/DTD/svg11.dtd">
<svg version="1.1" id="Layer_1" xmlns="http://www.w3.org/2000/svg" xmlns:xlink="http://www.w3.org/1999/xlink" x="0px" y="0px"
	 width="300px" height="300px" viewBox="0 0 300 300" enable-background="new 0 0 300 300" xml:space="preserve">
<g>
	<g>
		<path fill="#1376BC" stroke="#000000" stroke-width="3" stroke-miterlimit="10" d="M274.375,193.316
			c0,14.186-11.537,25.725-25.723,25.725h-13.193c-3.043,0-5.521,2.447-5.521,5.521v23.543l-22.914-27.08
			c-1.059-1.256-2.578-1.951-4.201-1.951H51.35c-14.185,0-25.726-11.541-25.726-25.725v-16.732v-11.01V77.621
			c0-14.186,11.541-25.727,25.726-25.727h169.759h11.012h16.531c14.186,0,25.723,11.541,25.723,25.727V193.316L274.375,193.316z"/>
	</g>
	<text transform="matrix(1 0 0 1 93.0127 120.6436)" fill="#FFFFFF" font-family="'MyriadPro-Regular'" font-size="64.6868">LIVE</text>
	
		<text transform="matrix(1 0 0 1 93.0127 120.6436)" fill="#8DC541" stroke="#8DC541" stroke-width="1.2879" stroke-miterlimit="10" font-family="'MyriadPro-Regular'" font-size="64.6868">LIVE</text>
	<text transform="matrix(1 0 0 1 74.2539 198.2686)" fill="#FFFFFF" font-family="'MyriadPro-Regular'" font-size="64.6868">CHAT</text>
	
		<text transform="matrix(1 0 0 1 74.2539 198.2686)" fill="#FFFFFF" stroke="#FFFFFF" stroke-width="1.2879" stroke-miterlimit="10" font-family="'MyriadPro-Regular'" font-size="64.6868">CHAT</text>
</g>
</svg>
