<?xml version="1.0" encoding="utf-8"?>
<!-- Generator: Adobe Illustrator 16.0.0, SVG Export Plug-In . SVG Version: 6.00 Build 0)  -->
<!DOCTYPE svg PUBLIC "-//W3C//DTD SVG 1.1//EN" "http://www.w3.org/Graphics/SVG/1.1/DTD/svg11.dtd">
<svg version="1.1" id="Layer_1" xmlns="http://www.w3.org/2000/svg" xmlns:xlink="http://www.w3.org/1999/xlink" x="0px" y="0px"
	 width="300px" height="300px" viewBox="329.833 0 300 300" enable-background="new 329.833 0 300 300" xml:space="preserve">
<g>
	<path fill="#1AA0E5" stroke="#070707" stroke-width="3" stroke-miterlimit="10" d="M604.209,193.316
		c0,14.186-11.538,25.725-25.723,25.725h-13.194c-3.042,0-5.521,2.447-5.521,5.521v23.543l-22.915-27.08
		c-1.058-1.256-2.578-1.951-4.2-1.951H381.184c-14.185,0-25.726-11.541-25.726-25.725v-16.732v-11.01V77.621
		c0-14.185,11.541-25.726,25.726-25.726h169.758h11.012h16.532c14.185,0,25.723,11.541,25.723,25.726V193.316z"/>
</g>
<text transform="matrix(1 0 0 1 422.8462 120.6431)"><tspan x="0" y="0" fill="#FFFFFF" stroke="#FFFFFF" stroke-width="1.2879" stroke-miterlimit="10" font-family="'MyriadPro-Regular'" font-size="64.6868">LIVE</tspan><tspan x="-18.759" y="77.625" fill="#FFFFFF" stroke="#FFFFFF" stroke-width="1.2879" stroke-miterlimit="10" font-family="'MyriadPro-Regular'" font-size="64.6868">CHAT</tspan></text>
</svg>
